<svg width="31" height="27" viewBox="0 0 31 27" fill="none" xmlns="http://www.w3.org/2000/svg">
<path d="M14.3423 2.52201C14.3428 2.52155 14.3435 2.52155 14.344 2.52201L14.934 3.11285C15.2603 3.43962 15.7898 3.4398 16.1163 3.11327L16.7067 2.52285C17.4815 1.74119 18.4032 1.12027 19.4186 0.695743C20.4341 0.271213 21.5234 0.0514342 22.624 0.0490241C23.7246 0.046614 24.8149 0.26162 25.8322 0.681698C26.8495 1.10178 27.7738 1.71865 28.5521 2.49692C29.3303 3.27518 29.9472 4.19949 30.3673 5.2168C30.7874 6.23411 31.0024 7.32437 31 8.425C30.9976 9.52562 30.7778 10.6149 30.3533 11.6304C29.9287 12.6458 29.3078 13.5675 28.5261 14.3423L16.7084 26.1617C16.5531 26.3172 16.3688 26.4405 16.1659 26.5246C15.9629 26.6087 15.7454 26.652 15.5258 26.652C15.3061 26.652 15.0886 26.6087 14.8857 26.5246C14.6827 26.4405 14.4984 26.3172 14.3431 26.1617L2.5237 14.3423C1.73141 13.5699 1.10036 12.648 0.66717 11.6298C0.233977 10.6117 0.0072607 9.51768 0.000171559 8.41124C-0.00691758 7.3048 0.205762 6.20797 0.625873 5.18437C1.04598 4.16077 1.66516 3.23077 2.44749 2.44833C3.22982 1.66589 4.15973 1.04658 5.18327 0.626322C6.20682 0.206066 7.30362 -0.00676859 8.41006 0.000164069C9.5165 0.00709673 10.6105 0.233659 11.6287 0.666707C12.6466 1.0996 13.5683 1.73022 14.3406 2.522C14.3411 2.52247 14.3419 2.52248 14.3423 2.52201V2.52201Z" fill="#595858"/>
</svg>
