<svg width="21" height="22" viewBox="0 0 21 22" fill="none" xmlns="http://www.w3.org/2000/svg">
<path d="M6.00599 15.1863L7.85504 14.6529L18.9882 3.38642C19.076 3.29644 19.1249 3.17551 19.1243 3.04978C19.1237 2.92404 19.0737 2.80359 18.985 2.71443L18.3183 2.04033C18.2752 1.99605 18.2237 1.96081 18.1669 1.93665C18.11 1.91248 18.0489 1.89989 17.9871 1.89959C17.9254 1.8993 17.8641 1.91132 17.8071 1.93494C17.75 1.95856 17.6982 1.99332 17.6547 2.03718L6.55094 13.2743L6.00494 15.1853L6.00599 15.1863ZM19.6381 0.704728L20.3049 1.37988C21.2247 2.31123 21.2331 3.81377 20.3217 4.73567L8.84939 16.3466L4.89719 17.4848C4.6559 17.5523 4.39767 17.5213 4.17916 17.3987C3.96066 17.2761 3.79973 17.0718 3.73169 16.8306C3.68107 16.6572 3.68034 16.4731 3.72959 16.2993L4.87934 12.2673L16.3212 0.686878C16.5387 0.467804 16.7978 0.294243 17.0831 0.176319C17.3684 0.0583941 17.6744 -0.00153395 17.9832 2.98335e-05C18.2919 0.00159362 18.5973 0.064618 18.8814 0.185427C19.1655 0.306236 19.4228 0.483462 19.6381 0.704728ZM7.54319 1.91538C8.06399 1.91538 8.48609 2.34273 8.48609 2.86982C8.48692 2.99443 8.46318 3.11797 8.41623 3.23339C8.36928 3.34881 8.30004 3.45384 8.21247 3.54249C8.1249 3.63113 8.02072 3.70164 7.90588 3.74999C7.79104 3.79835 7.66779 3.82359 7.54319 3.82427H3.77159C2.73 3.82427 1.8858 4.67897 1.8858 5.73212V17.1834C1.8858 18.2376 2.73 19.0923 3.77159 19.0923H15.0864C16.128 19.0923 16.9732 18.2376 16.9732 17.1834V13.3667C16.9732 12.8396 17.3953 12.4122 17.9161 12.4122C18.4369 12.4122 18.859 12.8396 18.859 13.3677V17.1834C18.859 19.2918 17.1696 21.0012 15.0864 21.0012H3.77159C1.6884 21.0012 0 19.2918 0 17.1834V5.73212C0 3.62477 1.6884 1.91538 3.77159 1.91538H7.54319Z" fill="black"/>
</svg>
