<svg width="88" height="88" viewBox="0 0 88 88" fill="none" xmlns="http://www.w3.org/2000/svg">
<g filter="url(#filter0_d_367_2)">
<circle cx="44" cy="40" r="40" fill="white"/>
<circle cx="44" cy="40" r="39.5" stroke="black"/>
</g>
<path d="M38 24V22C38 21.4696 38.2107 20.9609 38.5858 20.5858C38.9609 20.2107 39.4696 20 40 20H48C48.5304 20 49.0391 20.2107 49.4142 20.5858C49.7893 20.9609 50 21.4696 50 22V24H58C59.0609 24 60.0783 24.4214 60.8284 25.1716C61.5786 25.9217 62 26.9391 62 28V30C62 31.0609 61.5786 32.0783 60.8284 32.8284C60.0783 33.5786 59.0609 34 58 34H57.734L56.374 54.4C56.2725 55.9186 55.5978 57.3418 54.4864 58.3816C53.375 59.4213 51.9099 59.9998 50.388 60H37.652C36.1313 60 34.6674 59.4226 33.5562 58.3845C32.445 57.3464 31.7694 55.9251 31.666 54.408L30.274 34H30C28.9391 34 27.9217 33.5786 27.1716 32.8284C26.4214 32.0783 26 31.0609 26 30V28C26 26.9391 26.4214 25.9217 27.1716 25.1716C27.9217 24.4214 28.9391 24 30 24H38ZM58 28H30V30H58V28ZM34.282 34L35.656 54.136C35.6905 54.6418 35.9158 55.1157 36.2863 55.4617C36.6569 55.8078 37.145 56.0002 37.652 56H50.388C50.8956 56.0001 51.3843 55.8071 51.755 55.4603C52.1256 55.1134 52.3505 54.6385 52.384 54.132L53.724 34H34.284H34.282ZM40 36C40.5304 36 41.0391 36.2107 41.4142 36.5858C41.7893 36.9609 42 37.4696 42 38V52C42 52.5304 41.7893 53.0391 41.4142 53.4142C41.0391 53.7893 40.5304 54 40 54C39.4696 54 38.9609 53.7893 38.5858 53.4142C38.2107 53.0391 38 52.5304 38 52V38C38 37.4696 38.2107 36.9609 38.5858 36.5858C38.9609 36.2107 39.4696 36 40 36ZM48 36C48.5304 36 49.0391 36.2107 49.4142 36.5858C49.7893 36.9609 50 37.4696 50 38V52C50 52.5304 49.7893 53.0391 49.4142 53.4142C49.0391 53.7893 48.5304 54 48 54C47.4696 54 46.9609 53.7893 46.5858 53.4142C46.2107 53.0391 46 52.5304 46 52V38C46 37.4696 46.2107 36.9609 46.5858 36.5858C46.9609 36.2107 47.4696 36 48 36Z" fill="#ED0C0C" fill-opacity="0.96"/>
<defs>
<filter id="filter0_d_367_2" x="0" y="0" width="88" height="88" filterUnits="userSpaceOnUse" color-interpolation-filters="sRGB">
<feFlood flood-opacity="0" result="BackgroundImageFix"/>
<feColorMatrix in="SourceAlpha" type="matrix" values="0 0 0 0 0 0 0 0 0 0 0 0 0 0 0 0 0 0 127 0" result="hardAlpha"/>
<feOffset dy="4"/>
<feGaussianBlur stdDeviation="2"/>
<feComposite in2="hardAlpha" operator="out"/>
<feColorMatrix type="matrix" values="0 0 0 0 0 0 0 0 0 0 0 0 0 0 0 0 0 0 0.25 0"/>
<feBlend mode="normal" in2="BackgroundImageFix" result="effect1_dropShadow_367_2"/>
<feBlend mode="normal" in="SourceGraphic" in2="effect1_dropShadow_367_2" result="shape"/>
</filter>
</defs>
</svg>
